<svg xmlns="http://www.w3.org/2000/svg" viewBox="0 0 32 28" fill="none">
  <defs>
    <linearGradient id="solana-gradient" x1="24.4" y1="2" x2="5.1" y2="26" gradientUnits="userSpaceOnUse">
      <stop offset="0%" stop-color="#14F195" />
      <stop offset="100%" stop-color="#9945FF" />
    </linearGradient>
  </defs>
  <path d="M4.6 2h22.8c.4 0 .7.2.9.5.2.4.1.8-.1 1.1L22 9.7c-.2.3-.5.5-.9.5H1.2c-.4 0-.7-.2-.9-.5-.2-.4-.1-.8.1-1.1L6.6 2.5c.2-.3.5-.5.9-.5z" fill="url(#solana-gradient)"/>
  <path d="M27.4 10.2H4.6c-.4 0-.7.2-.9.5-.2.4-.1.8.1 1.1l6.2 6.1c.2.3.5.5.9.5h22.8c.4 0 .7-.2.9-.5.2-.4.1-.8-.1-1.1l-6.2-6.1c-.2-.3-.5-.5-.9-.5z" fill="url(#solana-gradient)"/>
  <path d="M4.6 18.3h22.8c.4 0 .7.2.9.5.2.4.1.8-.1 1.1l-6.2 6.1c-.2.3-.5.5-.9.5H1.2c-.4 0-.7-.2-.9-.5-.2-.4-.1-.8.1-1.1l6.2-6.1c.2-.3.5-.5.9-.5z" fill="url(#solana-gradient)"/>
</svg>
